<svg id="Layer_1" data-name="Layer 1" xmlns="http://www.w3.org/2000/svg" viewBox="0 0 224.83 223.71"><defs><style>.cls-1{fill:#fff;}.cls-2{fill:#4369b2;}</style></defs><path class="cls-1" d="M454.87,312.12h25c.46,1.27,1.61.88,2.53,1,48.46,7.59,84.26,40.82,95,88,.82,3.62.45,7.52,2.42,10.88v25c-.95.41-.86,1.28-1,2.09-7.29,50.3-43.19,87.3-93.46,96.44-2.92.53-4.53.7-4.5-3.27.18-23.13.14-46.27,0-69.41,0-3,.77-4.05,3.89-4,7.65.21,15.32-.06,23,.13,2.9.07,4-.79,4.44-3.73,1.45-9.17,3.05-18.33,5-27.4.75-3.4-.52-3.61-3.13-3.58-6.49.08-13,0-19.48,0-15,0-15,0-13.6-15.07,1.34-14.71,6.11-19.69,20.86-21.74a53.3,53.3,0,0,1,14.44.09c2.72.37,3.5-.47,3.46-3.12q-.18-12.22,0-24.46c0-2.61-.67-3.68-3.43-4.24a116.59,116.59,0,0,0-31.79-1.6c-23.79,1.81-38.2,14.76-42.8,38-1.79,9-1.95,18.19-1.62,27.33.15,4.06-1.22,5.14-5.05,4.9-4.81-.3-9.65.05-14.47-.12-2.82-.09-3.75.89-3.7,3.73.15,9.16.17,18.31,0,27.47-.06,3,1.21,3.59,3.84,3.51,5-.16,10,.18,15-.12,3.58-.22,4.41,1,4.39,4.47q-.23,32.72,0,65.42c0,4-.8,4.8-4.76,3.51-39.31-12.83-64.72-39-76.53-78.62-1.54-5.18-1.31-10.76-3.87-15.66V411c1.76-1.42,1.36-3.61,1.73-5.43,9.46-46.28,36.92-76,82-89.71C444,314.28,449.74,314.47,454.87,312.12Z" transform="translate(-354.95 -312.12)"/><path class="cls-2" d="M439.07,532.61" transform="translate(-354.95 -312.12)"/></svg>