<svg id="Layer_1" data-name="Layer 1" xmlns="http://www.w3.org/2000/svg" viewBox="0 0 137.38 137.52"><defs><style>.cls-1{fill:#fff;}</style></defs><path class="cls-1" d="M348.79,410.4c0-12.29-1-24.63,1-36.82,2.51-14.88,10.82-25.25,25.47-29.54a57.5,57.5,0,0,1,16.28-2.45c12,.05,24-.41,36,.1,6.23.26,12.38.37,18.62.27,9-.15,17.95,1.87,25.14,8,9.12,7.72,14.23,17.72,14.39,29.72.26,20.3.45,40.62-.05,60.92-.27,10.84-3.78,20.85-12.69,28.09,1.21-5.24-1-10.73-5-12.58A43.87,43.87,0,0,0,472,446.5c1.27-4.56.16-9.33,1.71-13.8l.66,3.79q.5-13,.27-26.09c0-1.58,1-3.53-.88-4.82-.33-8.8-.6-17.6-1-26.4-.65-14-10.09-23.67-23.95-24.48a467.28,467.28,0,0,0-62.28,0c-14.95,1.12-23.49,9.39-24.7,24.56-.77,9.63-.8,19.26-.94,28.9a32.69,32.69,0,0,0-4.41,2.7C353.67,413.24,351.21,412.93,348.79,410.4Z" transform="translate(-348.55 -341.45)"/><path class="cls-1" d="M348.79,410.4c2.42,2.53,4.88,2.84,7.68.46a32.69,32.69,0,0,1,4.41-2.7c.05,7.63-.05,15.27.2,22.9.19,5.77-.36,11.94,1.51,17.18,4,11.28,12.65,17,25,17.73,19.09,1.13,38.18.68,57.25.34,8.58-.15,17.43-2.25,23.08-10.24,4,1.85,6.24,7.34,5,12.58a35,35,0,0,1-23.54,9.5c-22.77.64-45.62,1.78-68.31-.74-16.52-1.84-28.23-13.64-31.22-30.24C347.66,435,349.12,422.66,348.79,410.4Z" transform="translate(-348.55 -341.45)"/><path class="cls-1" d="M473.7,432.7q0-13.57.05-27.13c1.91,1.3.85,3.25.88,4.83q.21,13-.27,26.09Z" transform="translate(-348.55 -341.45)"/><path class="cls-1" d="M382.54,405.94c1-13.2,8.15-22.6,19.73-27.75,25.33-11.25,51.19,6.82,50.46,33.58a30.54,30.54,0,0,1-5.36,16.83c.13-1.06-.35-2.75-.95-2.49-3.24,1.4-7-1.46-9.94,1.32-1,1-2,1.05-3,0,1-1.71,2-3.43,3-5.14,7.58-12.88,2.41-28.42-11.37-33.41a22,22,0,0,0-20.81,2.71c-8,5.42-10.16,13.17-9.48,22.21-2.22-2.07-.11-6.4-3.42-7.54A13.37,13.37,0,0,0,382.54,405.94Z" transform="translate(-348.55 -341.45)"/><path class="cls-1" d="M382.54,405.94a13.37,13.37,0,0,1,8.84.32c3.31,1.14,1.2,5.47,3.42,7.54a22.79,22.79,0,0,0,19.08,18.92c7.42,1.15,13.59-1.62,19.61-5.29,1,1.05,1.95,1,3,0,2.94-2.78,6.7.08,9.94-1.32.6-.26,1.08,1.43.95,2.49-14.8,22.06-39.51,19.77-52.23,9C385.33,429.35,380.77,418.88,382.54,405.94Z" transform="translate(-348.55 -341.45)"/><path class="cls-1" d="M453.05,381.74c-3.18-.07-9.3-5.48-9.16-8.09.18-3.49,6.44-8.44,10.48-8.31a7.94,7.94,0,0,1,8,8.37C462.31,378.58,458.49,381.86,453.05,381.74Z" transform="translate(-348.55 -341.45)"/></svg>