<?xml version="1.0" encoding="UTF-8" standalone="no"?>
<svg
   id="Layer_1"
   data-name="Layer 1"
   viewBox="0 0 480.74 480.74"
   version="1.1"
   sodipodi:docname="logo copy.svg"
   inkscape:version="1.4 (86a8ad7, 2024-10-11)"
   xmlns:inkscape="http://www.inkscape.org/namespaces/inkscape"
   xmlns:sodipodi="http://sodipodi.sourceforge.net/DTD/sodipodi-0.dtd"
   xmlns="http://www.w3.org/2000/svg"
   xmlns:svg="http://www.w3.org/2000/svg">
  <sodipodi:namedview
     id="namedview3"
     pagecolor="#505050"
     bordercolor="#eeeeee"
     borderopacity="1"
     inkscape:showpageshadow="0"
     inkscape:pageopacity="0"
     inkscape:pagecheckerboard="0"
     inkscape:deskcolor="#505050"
     inkscape:zoom="1.1958186"
     inkscape:cx="244.1842"
     inkscape:cy="252.12855"
     inkscape:window-width="1920"
     inkscape:window-height="1094"
     inkscape:window-x="-11"
     inkscape:window-y="-11"
     inkscape:window-maximized="1"
     inkscape:current-layer="Layer_1" />
  <defs
     id="defs1">
    <style
       id="style1">.cls-1{fill:#fff;}.cls-2{fill:#9a947e;}</style>
  </defs>
  <path
     class="cls-2"
     d="m 169.97128,115.64001 c -0.12198,10.51566 -1.80449,21.19958 -6.5828,31.27358 -4.97601,10.48202 -13.08989,17.64529 -23.3658,22.554 -8.79531,4.20627 -18.15846,6.39773 -27.80763,7.47033 -3.03272,0.3365 -3.16732,0.30286 -3.41969,-2.85606 -0.94641,-11.70604 -0.021,-23.227 4.12634,-34.3105 4.79935,-12.81229 13.7545,-21.6791 26.25551,-27.07574 a 85.509184,85.509184 0 0 1 27.98428,-6.80153 c 1.68251,-0.11778 2.43543,0.15142 2.5448,2.13257 0.15142,2.37655 0.15142,4.74888 0.26499,7.61335 z"
     id="path2-8"
     style="fill:#9a947e;stroke-width:0.420626" />
  <path
     class="cls-2"
     d="m 326.48853,125.87993 c -10.03868,3.13352 -20.71962,4.83486 -31.77714,3.40345 -11.50666,-1.49334 -20.82666,-6.99652 -28.67056,-15.25262 -6.7183,-7.06502 -11.69587,-15.292711 -15.69774,-24.138169 -1.25719,-2.780296 -1.26678,-2.918712 1.65953,-4.134888 10.84065,-4.517456 22.08369,-7.197552 33.90634,-6.678144 13.66829,0.60524 24.86843,6.382088 33.86396,16.60361 a 85.509184,85.509184 0 0 1 15.11626,24.512851 c 0.63193,1.56376 0.60858,2.36301 -1.24181,3.07924 -2.21344,0.8784 -4.46966,1.61149 -7.15884,2.60467 z"
     id="path2-2"
     style="fill:#9a947e;stroke-width:0.420626" />
  <path
     class="cls-2"
     d="m 112.43457,268.75269 c 9.96329,3.36553 19.60438,8.2672 27.70874,15.92469 8.43132,7.97158 12.73667,17.90191 14.22971,29.19176 1.28249,9.66464 0.47332,19.24672 -1.48832,28.75508 -0.61713,2.98827 -0.69072,3.10589 -3.77303,2.36975 -11.42556,-2.71727 -22.09669,-7.15752 -31.35611,-14.52691 -10.70213,-8.52368 -16.36768,-19.78052 -17.63716,-33.33734 a 85.509184,85.509184 0 0 1 2.17898,-28.71642 c 0.4079,-1.63656 0.89659,-2.26944 2.81458,-1.76124 2.30702,0.59038 4.56324,1.32347 7.32261,2.10063 z"
     id="path2-5"
     style="fill:#9a947e;stroke-width:0.420626" />
  <path
     class="cls-2"
     d="m 369.29844,281.14931 c -6.08227,-8.57904 -11.00094,-18.21147 -13.05655,-29.17013 -2.13551,-11.40496 0.21829,-21.96938 5.64641,-31.98065 4.64317,-8.57269 10.93001,-15.84914 18.1059,-22.38853 2.25573,-2.05483 2.3844,-2.10672 4.44534,0.30055 7.64629,8.91409 13.66951,18.77867 16.82892,30.18318 3.64812,13.18635 1.61504,25.62346 -5.32644,37.33734 a 85.509184,85.509184 0 0 1 -18.64191,21.95131 c -1.29195,1.08422 -2.0593,1.309 -3.31228,-0.2295 -1.5194,-1.83367 -2.91382,-3.75292 -4.68939,-6.00357 z"
     id="path2-1"
     style="fill:#9a947e;stroke-width:0.420626" />
  <path
     class="cls-2"
     d="m 235.1271,366.90692 c 6.27963,-8.43566 13.92067,-16.09017 23.70775,-21.43159 10.18686,-5.5553 20.96159,-6.58129 32.16023,-4.51249 9.58794,1.76681 18.451,5.4974 26.8878,10.30129 2.65132,1.51035 2.74044,1.61668 1.08785,4.32064 -6.11498,10.02667 -13.63547,18.8034 -23.5055,25.33238 -11.41363,7.54437 -23.87027,9.45407 -37.15587,6.47212 a 85.509184,85.509184 0 0 1 -26.6376,-10.94618 c -1.4304,-0.89368 -1.8813,-1.55401 -0.80528,-3.22108 1.27439,-2.01168 2.66881,-3.93093 4.26062,-6.31509 z"
     id="path2-11"
     style="fill:#9a947e;stroke-width:0.420626" />
</svg>
