<svg id="Layer_1" data-name="Layer 1" xmlns="http://www.w3.org/2000/svg" viewBox="0 0 480.74 480.74"><defs><style>.cls-1{fill:#fff;}.cls-2{fill:#9a947e;}</style></defs><path class="cls-1" d="M522.25,362c0,110.47-74.53,203.54-176.06,231.67a240,240,0,0,1-55.83,8.55q-4.22.15-8.48.15-3.93,0-7.83-.13-11.94-.37-23.56-1.9c-117.92-15.38-209-116.23-209-238.34,0-132.75,107.62-240.37,240.37-240.37S522.25,229.21,522.25,362Z" transform="translate(-41.51 -121.59)"/><path class="cls-2" d="M346.19,593.63a240,240,0,0,1-55.83,8.55l-13.07,0h-3.24q-11.94-.37-23.56-1.9a6.49,6.49,0,0,1-.32-1c-10.37-44.09-24.4-87.09-39.27-129.82-20.56-59.13-43.82-117.17-70.81-173.68-12.84-26.87-26.52-53.32-41.77-78.93-.5-.83-.89-1.73-1.79-3.53h16.24q68.21,0,136.42-.06c3.69,0,5.31.3,4.11,4.77-5.69,21.1-4.91,42.6-2.43,64,6.3,54.14,23.9,105.22,43.08,155.83,12.39,32.67,26.58,64.6,40,96.86,5.24,12.64,8.85,25.77,12.24,39C347.85,580.31,346.81,587,346.19,593.63Z" transform="translate(-41.51 -121.59)"/><path class="cls-2" d="M468.27,236.32c-.29,25-4.29,50.4-15.65,74.35-11.83,24.92-31.12,41.95-55.55,53.62-20.91,10-43.17,15.21-66.11,17.76-7.21.8-7.53.72-8.13-6.79-2.25-27.83-.05-55.22,9.81-81.57,11.41-30.46,32.7-51.54,62.42-64.37a203.29,203.29,0,0,1,66.53-16.17c4-.28,5.79.36,6.05,5.07C468,223.87,468,229.51,468.27,236.32Z" transform="translate(-41.51 -121.59)"/></svg>