<svg id="Layer_1" data-name="Layer 1" xmlns="http://www.w3.org/2000/svg" viewBox="0 0 125.1 63.99"><defs><style>.cls-1{fill:#fefdf2;}.cls-2{fill:#fdfcf2;}.cls-3{fill:#f8f8ec;}.cls-3,.cls-4,.cls-5,.cls-6,.cls-7,.cls-8,.cls-9{stroke:#fefdf2;stroke-miterlimit:10;stroke-width:2px;}.cls-4{fill:#f6f7e9;}.cls-5{fill:#f6f7e8;}.cls-6{fill:#f7f8e9;}.cls-7{fill:#f6f7ea;}.cls-8{fill:#f7f8eb;}.cls-9{fill:#f3f3e7;}</style></defs><path class="cls-1" d="M121.92,68.57l-.19-.18a6.86,6.86,0,0,1-2.59-5.85c0-3.12,0-6.22,0-9.34a111.37,111.37,0,0,1,.28-12,72.61,72.61,0,0,1,1.23-7.49c.09-.43.29-.9-.08-1.26s-.93-.14-1.38,0a8.2,8.2,0,0,0-2.31,1.29,17.58,17.58,0,0,1-10,4c-.4,0-.82,0-1,.5s.16.83.51,1.13A6.66,6.66,0,0,1,108,41.92c.38.92.21,1.34-.89,1.1a16.08,16.08,0,0,0-6.87.1c-6.76,1.4-11.74,7.79-11.19,14.39A14.17,14.17,0,0,0,101.31,70.1c3.57.58,7.18.09,10.09.25h9.87c.46,0,1,.15,1.28-.44S122.29,68.93,121.92,68.57Zm-13.67-12.8a23.74,23.74,0,0,1-1.61,9.82,5.48,5.48,0,0,1-.29.6c-.55.91-1.08,1.94-2.33,2s-1.83-1-2.36-1.92a17.38,17.38,0,0,1-1.86-7.17A25.8,25.8,0,0,1,101,48.26a10.22,10.22,0,0,1,.93-1.91c1.22-2,3-2,4.26,0A16.29,16.29,0,0,1,108,52.22,21.07,21.07,0,0,1,108.25,55.77Z" transform="translate(-17.21 -6.41)"/><path class="cls-1" d="M38.21,55.27c1.29-5.87,2.56-11.41,2.27-17.17a6.85,6.85,0,0,0-.82-2.93c-.58-1.13-.35-1.65.82-1.65,2.67-.05,5.34,0,8,0,.35,0,.76,0,.9.41a.82.82,0,0,1-.5,1c-3,1.64-3.84,4.64-4.74,7.58-1.64,5.26-3.21,10.54-4.84,15.8-.77,2.46-1.42,2.93-4,2.94H31.41c-2.07-.08-2.93-.76-3.59-2.75-1.71-5.13-3-10.4-4.93-15.47-1.13-3-2.3-5.91-5.11-7.76a1,1,0,0,1-.55-1.12c.16-.54.65-.58,1.09-.58H34.06c1.09,0,1.55.67,1,1.43-1.8,2.59-1.51,5.43-1,8.22a46.64,46.64,0,0,0,3.64,11.4A5.49,5.49,0,0,0,38.21,55.27Z" transform="translate(-17.21 -6.41)"/><path class="cls-1" d="M80,39.94c1-1.12,1.64-2,2.46-2.84,1.71-1.79,3.56-3.37,6.2-3.57a8.09,8.09,0,0,1,4.83,1.26,5.07,5.07,0,0,1,2,6.86,5.35,5.35,0,0,1-1.14,1.41A7.15,7.15,0,0,1,88.22,45c-1.9-.27-2.67-1.38-2.46-3.29,0-.53.19-1,.27-1.57.18-1.22-.36-1.65-1.53-1.3-2.11.67-4.93,4.39-5,6.62-.07,3.87-.21,7.74,1.17,11.46A5.18,5.18,0,0,0,82,59.07c.43.4.89.82.58,1.49s-.93.61-1.51.61H67.2a1,1,0,0,1-1-.55.82.82,0,0,1,.4-1c2.76-1.93,3.15-4.74,3-7.8-.08-1.78,0-3.56,0-5.34A6.69,6.69,0,0,0,67.12,41c-.43-.36-1.07-.67-.89-1.37s.92-.65,1.45-.66c3.5-.1,6.39-1.65,9.13-3.67a23.43,23.43,0,0,1,2.51-1.5,1.19,1.19,0,0,1,1.27-.12c.42.3.19.82.12,1.24C80.43,36.46,80.23,38,80,39.94Z" transform="translate(-17.21 -6.41)"/><path class="cls-1" d="M65,56.07c-.44-.32-.75,0-1,.3a6.15,6.15,0,0,1-2,1.32c-3.19,1.42-6.45.18-7.51-3,.7.15,1.25.29,1.8.37a7.83,7.83,0,0,0,6.82-1.86,4.89,4.89,0,0,0,.73-6.86,5,5,0,0,0-1-.89,10.64,10.64,0,0,0-14.35,1.27,8.86,8.86,0,0,0-1.29,9.91,10.4,10.4,0,0,0,11.36,5,9.9,9.9,0,0,0,6.42-4.39C65.29,56.88,65.5,56.43,65,56.07ZM55,45.75c1.08-1.49,2.31-1.38,3.13.28a6.35,6.35,0,0,1,.69,2.86,7.35,7.35,0,0,1-.76,3.69c-.82,1.48-2.15,1.51-3.12.1A7,7,0,0,1,55,45.75Z" transform="translate(-17.21 -6.41)"/><path class="cls-1" d="M142.09,55.83c-.44-.43-.82-.1-1.13.23-.16.15-.31.31-.49.45-3.28,2.59-7.69,1.64-9-2.22a9,9,0,0,0,6.78-.2c2.16-1,3.57-2.59,3.67-5s-1.36-3.76-3.21-4.83a10.49,10.49,0,0,0-7.09-1.17c-5,.73-8.79,5.28-8.32,9.92.62,6.12,7.14,10,13.24,8.09A9.68,9.68,0,0,0,142,57C142.22,56.6,142.52,56.23,142.09,55.83Zm-9.86-10.68c.88-1.14,1.87-1.08,2.7.09,1.24,1.71,1.19,5.75-.09,7.39a1.53,1.53,0,0,1-2.08.6,1.72,1.72,0,0,1-.51-.46,5.23,5.23,0,0,1-1.15-3.86,6,6,0,0,1,1.13-3.76Z" transform="translate(-17.21 -6.41)"/><path class="cls-1" d="M66.6,35.08a25.43,25.43,0,0,1-5.14-.77c-.53-.14-.94-.37-.72-1,1.53-4.63,3.78-8.68,8.91-10.09a16,16,0,0,1,8.81.41c.57.16.86.44.64,1.05-1.46,4.07-3.45,7.72-7.69,9.54A13.21,13.21,0,0,1,66.6,35.08Z" transform="translate(-17.21 -6.41)"/><path class="cls-2" d="M129.25,69.11c-3.88.18-6.14-2.89-7.15-5.32-.23-.53-.09-.82.46-1,5-1.8,8.66-.1,10.76,4.57.29.65,0,.9-.52,1.09A9.4,9.4,0,0,1,129.25,69.11Z" transform="translate(-17.21 -6.41)"/><path class="cls-3" d="M33.17,13.92c-.5-.42-.63-.72-.08-1.24a2.86,2.86,0,0,0,.57-3.3A2.89,2.89,0,0,0,30.82,7.6c-1.34-.08-2.7,0-4-.06-1.14-.06-1.54.46-1.51,1.54v4.36h0v4.85c0,.76.28,1.26,1.12,1.25,1.62,0,3.24,0,4.84-.09a3.17,3.17,0,0,0,1.9-5.53ZM26.82,9.05c.07-.35.51-.36.82-.35a31,31,0,0,1,3.2.19,1.69,1.69,0,0,1,1.66,1.73v.09a1.83,1.83,0,0,1-1.57,1.94,13.43,13.43,0,0,1-2,.21c-.73-.2-1.77.39-2.07-.48a6.38,6.38,0,0,1,0-3.33Zm6,7.41a1.7,1.7,0,0,1-1.34,1.63,22.59,22.59,0,0,1-2.32.28c-.83-.24-2,.38-2.27-.49a10.47,10.47,0,0,1-.09-3.35.57.57,0,0,1,.41-.41c1.55-.07,3.13-.33,4.62.31a1.82,1.82,0,0,1,1,2Z" transform="translate(-17.21 -6.41)"/><path class="cls-4" d="M59.1,10.7V18c0,.56.12,1.4-.69,1.41s-.68-.84-.69-1.38c0-3,0-6,0-8.92,0-.56-.14-1.3.64-1.49s.93.44,1.24.86q2.58,3.43,5.14,6.88A2.29,2.29,0,0,0,66,16.46C66,14.19,66,12,66,9.84c0-.75-.52-2.14.68-2.11s.61,1.39.63,2.16c.06,2.54,0,5.08,0,7.62,0,.67.32,1.58-.48,1.91s-1.13-.63-1.52-1.15c-2-2.55-3.89-5.14-5.83-7.71Z" transform="translate(-17.21 -6.41)"/><path class="cls-5" d="M81.76,7.79a23.66,23.66,0,0,0-4.68-.23c-.94,0-1.2.56-1.2,1.36v4.54h0v4.7c0,.82.27,1.39,1.18,1.4a17.45,17.45,0,0,0,4.84-.26c2.66-.71,4-2.73,3.94-5.93S84.5,8.43,81.76,7.79Zm-2,10.5c-2.42.05-2.42.05-2.42-2.43V11.17c0-2.46,0-2.46,2.53-2.36,3.21.13,4.57,1.56,4.54,4.79s-1.51,4.61-4.65,4.67Z" transform="translate(-17.21 -6.41)"/><path class="cls-6" d="M129.57,10.91a4.58,4.58,0,0,0-2.71-3c-4.25-1.64-7.72.89-7.71,5.67v1a5.3,5.3,0,0,0,4.61,5.07c3.07.27,5.21-1.17,6-4A8.06,8.06,0,0,0,129.57,10.91Zm-5.76,7.41a3.19,3.19,0,0,1-.63-.12c-2-.64-3-2.9-2.56-5.88a3.89,3.89,0,0,1,3.65-3.69c2.61-.19,4.16,1.64,4.16,4.94S126.76,18.69,123.81,18.32Z" transform="translate(-17.21 -6.41)"/><path class="cls-7" d="M46.36,7.55H48.8c.45,0,1.14-.13,1.11.58s-.73.5-1.17.52c-1.19,0-2.38.07-3.57,0-1,0-1.43.31-1.33,1.32a7.06,7.06,0,0,1,0,1.3c-.1,1.09.29,1.59,1.47,1.5s2.27,0,3.4,0c.39,0,.83.07.88.53s-.46.65-.89.66c-1.19,0-2.38.09-3.57,0-1,0-1.31.38-1.29,1.33.06,3.39-.28,2.85,2.81,2.92h2.44c.37,0,.81,0,.86.54s-.34.64-.74.65H43.37c-.74,0-1-.56-1-1.24V8.75c0-1,.42-1.37,1.38-1.33s1.73,0,2.59,0Z" transform="translate(-17.21 -6.41)"/><path class="cls-8" d="M106.83,14c0-1.25,0-2.49,0-3.73s-.32-1.61-1.47-1.53a16.39,16.39,0,0,1-2.1-.08.55.55,0,0,1-.55-.5c0-.43.27-.6.6-.6h8.43a.52.52,0,0,1,.57.46.6.6,0,0,1-.58.64,8.4,8.4,0,0,1-1,.07c-3,0-2.5-.09-2.53,2.71v6.82c0,.47,0,1.1-.62,1.13s-.74-.65-.75-1.17V14Z" transform="translate(-17.21 -6.41)"/><path class="cls-9" d="M95.5,13.79v4.69c0,.51-.1,1-.77,1s-.66-.49-.67-.94V8.66c0-.47.08-1.06.77-1s.67.62.67,1.11v5Z" transform="translate(-17.21 -6.41)"/></svg>