<svg id="Layer_1" data-name="Layer 1" xmlns="http://www.w3.org/2000/svg" viewBox="0 0 125.41 126.11"><defs><style>.cls-1{fill:#fff;}</style></defs><path class="cls-1" d="M459.8,265.18A62.58,62.58,0,0,0,386.52,217c-41.44,8.35-62.94,54.26-42.75,91.37a3.43,3.43,0,0,1,.29,2.81Q340,325.84,336,340.54c-.4,1.5-.39,1.51,1.14,1.1q15.17-4,30.33-8a3.06,3.06,0,0,1,2.4.28,63.27,63.27,0,0,0,29.9,7A52.13,52.13,0,0,0,410,340C444.59,333.66,467.19,299.71,459.8,265.18Zm-51.65,64.36a46.63,46.63,0,0,1-9.57.87,51.2,51.2,0,0,1-26.83-7.51,3.59,3.59,0,0,0-3.08-.44c-5.54,1.52-11.13,2.89-16.68,4.4-1.25.34-1.36.11-1-1.05,1.53-5.44,3-10.9,4.51-16.34a3.08,3.08,0,0,0-.43-2.77,52,52,0,1,1,53.12,22.84Z" transform="translate(-335.79 -215.76)"/><path class="cls-1" d="M430.14,297.47a13.75,13.75,0,0,1-11.4,10.67,18.33,18.33,0,0,1-3.61.29c-4.71.1-8.69-1.64-12.7-3.17-11.81-4.51-20.49-12.87-27.88-22.81-3.28-4.4-6.25-9-7.29-14.49a17.54,17.54,0,0,1,5.63-17c1.56-1.46,6.43-2.08,8.31-1.13a3.39,3.39,0,0,1,1.52,1.81q2.64,6.3,5.27,12.6a3.14,3.14,0,0,1-.15,2.61A19.35,19.35,0,0,1,384,272a2.54,2.54,0,0,0-.39,3.49,42.76,42.76,0,0,0,21.35,18.39,2.54,2.54,0,0,0,3.32-.78c1.5-1.88,3.05-3.72,4.53-5.62,1.18-1.51,1.82-1.82,3.59-1.05,3.16,1.39,6.26,2.91,9.38,4.37l1.48.74C430.6,293.15,430.9,293.75,430.14,297.47Z" transform="translate(-335.79 -215.76)"/></svg>