<svg id="Layer_1" data-name="Layer 1" xmlns="http://www.w3.org/2000/svg" viewBox="0 0 737.13 79.75"><defs><style>.cls-1{fill:#88896c;}.cls-2{fill:#88896b;}.cls-3{fill:#898a6c;}.cls-4{fill:#888a6a;}.cls-5{fill:#89896b;}.cls-6{fill:#89896d;}.cls-7{fill:#88896a;}.cls-8{fill:#89896c;}</style></defs><path class="cls-1" d="M373.1,68.83,378,71.37h0Z" transform="translate(0 -59.23)"/><path class="cls-1" d="M156.37,111c-3-5.44-7.83-7.84-14.12-7.58A88.65,88.65,0,0,0,130.43,105a51.44,51.44,0,0,1-6.43.73c-1.34.07-2.9-.21-2.83-2s1.57-2.38,3.21-2.26a22.52,22.52,0,0,1,2.44.52,32,32,0,0,0,22.61-3.52c10.73-6.17,11-17.72.49-24.3-1.76-1.11-3.61-2.06-5.82-3.32a14.44,14.44,0,0,1,7.44-.09c3.48.66,5.82-.47,6-4,.2-3.34-2-5.16-5.32-5.32-4.47-.21-8.45,1.3-10.69,5.17-1.66,2.89-3.66,3.34-6.52,3.08A29.9,29.9,0,0,0,120.85,72c-13.88,5.76-15.93,18.54-4.51,25.85,1.5,1,2.55,1.53.9,3.72-3.15,4.17-1.74,7,3.49,7.75,2,.28,4,.14,6,.25,9.93.59,17.5,6,20.27,14.35,2.21,6.69-1.48,11.71-8.54,11.65a15.33,15.33,0,0,1-15.62-15q0-.36,0-.72c0-2.44-.64-4.18-2.81-5.34-3.69-2-11.3-.61-13.87,2.73-3.19,4.12-.45,7.54,1.78,10.81,2.42,3.53,6.26,5.6,9.9,8.18l4.94,2.53h0c1-.64,2.77-.44,6.07,0,11,1.3,19.55-2.84,25.78-11.71C158.05,122.14,159.43,116.62,156.37,111ZM129.86,75c2.5-3.08,4.93-3.07,7.19.28a17,17,0,0,1,2.77,10.89,17.84,17.84,0,0,1-2.24,10.06c-2.24,4.11-5.34,4.27-8.08.58-3.64-4.92-3.44-17.18.36-21.84Z" transform="translate(0 -59.23)"/><path class="cls-1" d="M379.53,118.73c-1.94,2.41-5.62.91-8.54,1.06-3.65.19-7.33,0-11,0-2.13-.05-3-1.08-1.22-2.69,3.35-3.06,3.53-6.95,3.49-11-.06-5.16,0-10.33,0-15.49-.11-8.53-.14-8.53-4.54-15.22a26.37,26.37,0,0,0,15.4-6.5L378,71.43c-1,.67-1.22,2.21-1.46,5.33-.91,11.79-1.51,23.59.95,35.32C378,114.44,381.06,116.83,379.53,118.73Z" transform="translate(0 -59.23)"/><path class="cls-2" d="M270.16,74.81a38.68,38.68,0,0,1,17-5.63c4.63,1.12,9.46,1.25,13.77,3.88,6.3,3.86,9.77,10.25,7.92,15.68-2,5.78-10.72,10.56-17.21,9.42-4.46-.78-5-3.9-4.32-7.51s1.93-7.12,1.57-10.83c-.25-2.54-1-5-3.94-5.77s-5.18.33-7,2.63c-5.76,7.21-2.52,29.63,9.67,33.63,8.81,2.84,16.11.22,20.6-7.89.47-.84.73-2.24,1.89-1.93,1.78.47,1.16,2.15,1,3.37-.92,7.77-9.72,15.66-18.71,17.25-13.37,2.37-29-6-32.27-20.65C257.79,89.82,262.2,81.54,270.16,74.81Z" transform="translate(0 -59.23)"/><path class="cls-3" d="M484.73,76.56a21.64,21.64,0,0,0-20.16-1.31c-4.87,2.06-9.3,5.2-14.82,5.65-2,.16-2.09,1.43-.69,2.65,3.43,3,3.47,6.93,3.44,11q-.11,12,0,24c0,3.45-.39,6.62-3.17,9.08-2,1.8-1.31,2.85,1.11,3,2.83.12,5.66,0,8.49,0h4c1.5,0,3,0,4.5,0,2.53-.08,3.82-.71,2.28-3.63a29.92,29.92,0,0,1-2.48-7c-2.06-8.47-1.82-8.72,6.5-8.9a27.17,27.17,0,0,0,3.49-.25c7.86-1.16,14.76-7.56,16.2-15A18.46,18.46,0,0,0,484.73,76.56Zm-7.91,28.85a3.67,3.67,0,0,1-3.31,2.64c-2,.07-3-1.34-3.73-2.83a27.86,27.86,0,0,1-2.35-13.11c-.1-4.36.33-8.62,2.29-12.6.74-1.52,1.65-3.1,3.49-3.22s2.91,1.47,3.57,3c3.77,8.69,3.47,17.43,0,26.12Z" transform="translate(0 -59.23)"/><path class="cls-4" d="M732.43,101.85c.25-13.11-1-26.28,1.6-39.3.19-.93.38-2.26-.11-2.82-1-1.14-2.21-.06-3,.54a33.26,33.26,0,0,1-16.39,6.63c3.47,6.49,3.47,6.49-3.25,6.66h-.5c-10.51.37-18.89,8-19.43,17.69-.54,9.85,6.81,18.18,17.36,19.69,5.63.8,11.3.54,16.94.44,3.72-.07,7.56.8,11.48-.79C735.43,107.57,732.36,105.61,732.43,101.85Zm-15-9.78c0,4.6-.25,8.73-2,12.61-.75,1.71-1.68,3.32-3.88,3.34-2,0-3-1.49-3.59-3-3.45-8.71-3.68-17.48.47-26,1.85-3.8,4.47-3.76,6.49,0C717.23,83.17,717.58,87.82,717.43,92.07Z" transform="translate(0 -59.23)"/><path class="cls-2" d="M423.52,111c.12-12.61-.95-25.28,1.75-37.78.24-1.09,1.15-2.37,0-3.26-1.32-1-2.57.17-3.58.86-4.82,3.31-10,5.78-15.88,6.46.29,2.62,3.26,3.87,2.35,6.69-2.64,0-5.31-.18-7.94,0a19.48,19.48,0,0,0-17.67,16.83A18.32,18.32,0,0,0,395.35,120c10.66,3.13,21.62,1.55,33.9,1.29C425.81,117.72,423.48,114.9,423.52,111Zm-16.79,4.18a3.93,3.93,0,0,1-3.54,3c-2.18.09-3.26-1.39-4-3.11a29.17,29.17,0,0,1-2.08-12.63,27.39,27.39,0,0,1,2.11-12.61c.74-1.64,1.89-3.35,4-3.27,1.89.07,2.7,1.75,3.31,3.3,3.26,8.46,2.9,16.89.2,25.32Z" transform="translate(0 -59.23)"/><path class="cls-5" d="M44.72,102.85c-2,7.2-4.68,13.87-12.26,17a27.93,27.93,0,0,1-25.4-1.48,13.55,13.55,0,0,1-6.38-8c-1.28-4-.94-7.81,2.61-10.34,3.38-2.41,7.32-2,10.88-.17,2.77,1.37,4,3.6,3.15,7-1.49,6,.67,11.22,4.41,11.56,3.13.28,6.51-4.07,6.84-9.74.48-8.27.87-16.58-.86-24.79-1.77-3.84-.41-8.14-1.89-12.12-.69-1.87-3.69-3.62-1.91-5.53,1.52-1.63,4.44-.58,6.73-.62,5.15-.1,10.31-.07,15.45,0,1.38,0,3.6-.12,2.34,2.35C44.24,76.21,45.49,85.15,45,93.86,44.76,96.87,44.79,99.86,44.72,102.85Z" transform="translate(0 -59.23)"/><path class="cls-1" d="M100.78,81.41c-.39,5.13-1,10.23-1.11,15.34-.24,7.69,0,15.34,4.3,22.18,1.22,1.95,1,3.22-1.61,3.1-5.79-.27-12.07,1.73-16.57-4.26-1.88-2.5-3.11.68-4.25,1.49-8.25,5.9-21.26,2.07-24.18-7.43a30.34,30.34,0,0,1-.81-7.35c-.21-4.53-.34-9-4-12.45-1.48-1.4-1.3-2.83,1-3,5.62-.3,10.12-2.91,14.38-6.28,1.11-.87,2.71-2.2,4-1.38,1.77,1.09.38,3,.15,4.52-1.23,8.09-2.18,16.18.11,24.25.93,3.3,2.11,7,6.23,6.6s5.84-4.14,5.93-7.61c.17-6,1.87-12.5-3.83-17.28-1.18-1-1-2.55.42-2.59,7.13-.21,12.29-4.66,18-7.87A5.21,5.21,0,0,1,100.78,81.41Z" transform="translate(0 -59.23)"/><path class="cls-6" d="M180.79,81c-12-.1-22.59,9.26-22.71,20-.13,11.41,10,21.09,22.13,21.1,12.38,0,22.39-9.25,22.38-20.72C202.58,90.61,192.43,81.07,180.79,81Zm3,35.11c-2.24,3.8-5.16,3.84-7-.12a34.17,34.17,0,0,1,0-28.95c1.73-3.9,4.92-3.76,7,.09,2.43,4.5,2.84,9.49,2.83,15.66,0,3.85-.19,8.87-2.79,13.32Z" transform="translate(0 -59.23)"/><path class="cls-7" d="M222.62,122a21.21,21.21,0,0,1-13.19-3.7c-2.36-1.66-4.65-3.82-3.35-7s4.42-3.72,7.56-3.49c3.31.24,5.71,1.65,6.31,5.2.09.49.07,1,.13,1.49.19,1.67.27,3.46,2.27,4a2.27,2.27,0,0,0,2.57-1.14,4.71,4.71,0,0,0,.12-5.2c-1.36-2.15-3.52-3.47-5.66-4.76-2.85-1.7-5.83-3.23-8.51-5.16-6.91-5-7.06-12.13-.53-17.52,6.22-5.13,21.12-4.91,27.22.46,2,1.78,4.21,3.7,2.87,6.78-1.59,3.67-5,3.3-8.18,3.16-3-.12-5.05-1.51-5.62-4.62-.12-.65-.09-1.32-.17-2-.19-1.68-.41-3.39-2.26-4.09a2,2,0,0,0-2.23.71,4.82,4.82,0,0,0-.75,5.16c1,2.4,2.93,3.94,5.06,5.33a123,123,0,0,1,10.7,7.29c5.4,4.38,5.26,9.71,0,14.34C233.43,120.4,228.53,122,222.62,122Z" transform="translate(0 -59.23)"/><path class="cls-2" d="M335,83.83c-11.61-.29-21,7.74-21.46,18.35-.44,10.17,8.73,18.89,20.14,19.16s20.46-7.77,20.72-18.35C354.67,92.6,346.07,84.11,335,83.83Zm2.83,31.38c-.62,1.51-1.64,3-3.6,3a3.93,3.93,0,0,1-3.69-2.89A33.57,33.57,0,0,1,330.5,90c.67-1.66,1.67-3.56,3.81-3.49s2.81,2.09,3.63,3.71c2,3.84,1.62,8.09,2.07,11.66-.06,4.94-.49,9.26-2.16,13.31Z" transform="translate(0 -59.23)"/><path class="cls-8" d="M577.51,99.92c-1.55-1.6-2.44.86-3.51,1.57-6.81,4.54-14.1,2.89-18-5.29a17.57,17.57,0,0,0,14.37-.43c7.07-3.27,9.08-11,4.36-16.41S560.91,72,553.08,74.69,539.93,84,539.58,91.5c-.37,7.75,4.59,15.08,12.27,18.18,8.35,3.36,18.41,1,24.09-5.73C576.83,102.86,579.18,101.63,577.51,99.92ZM560.43,76.39c4.84,1.29,4,5.85,4.75,9.37-1,3.42,0,8-4.9,8.85-2.8.49-5.13-4-5.07-9.1C555.27,80.71,558,75.74,560.43,76.39Z" transform="translate(0 -59.23)"/><path class="cls-1" d="M687.7,99.78c-12.3,6-17.33,5.36-21-3.37,5.67,1.9,10.82,1.42,15.59-1.46,5.47-3.29,7.23-10.51,3.4-15-5.47-6.43-12.77-7.44-20.5-5.72-8,1.77-13.85,8.06-14.79,15.12-1.23,9.23,3.42,16.91,12.38,20.44,8.23,3.25,19.28.48,24-6.13C687.5,102.61,689.13,101.48,687.7,99.78ZM665.83,85c.41-3.51.52-8.42,5.19-8.28,5,.14,3.73,5.33,4.64,8.72-.85,3.51.13,8.16-4.93,9.16C667.9,95.19,665.24,90,665.83,85Z" transform="translate(0 -59.23)"/><path class="cls-7" d="M597.15,73.46a20.09,20.09,0,0,1,11.92,3c2.28,1.48,4.83,3.57,3.45,6.94-1.18,2.88-4,3.39-6.73,3.23-3.21-.2-5.8-1.56-6.14-5.3,0-.49,0-1-.08-1.49-.11-1.76-.45-3.64-2.67-3.39-2.38.27-2.53,2.36-2.34,4.26a6.12,6.12,0,0,0,3,4.32c3.58,2.42,7.19,4.8,10.64,7.39,6.56,4.9,6.33,11.39-.74,15.6-7.44,4.42-15.2,4.29-22.75.2-2.48-1.35-4.92-3.53-4-6.78.87-2.94,3.8-3.62,6.54-3.48,3.17.16,5.76,1.35,6.45,5,.33,1.78-.43,4.32,2.36,4.85,1.36.26,2.06-.74,2.5-1.94a4.51,4.51,0,0,0-1.93-5.66c-3-2.07-6.16-3.9-9.25-5.82-4.3-2.67-8.06-5.83-6.69-11.57,1.33-5.57,5.81-7.82,10.92-9A39.55,39.55,0,0,1,597.15,73.46Z" transform="translate(0 -59.23)"/><path class="cls-1" d="M630.71,73.59c5.72-.17,10.12.66,13.85,3.5,2,1.54,3.86,3.62,2.74,6.41s-4.1,3.23-6.78,3.19c-2.85,0-5.15-1.29-6-4.33a8.39,8.39,0,0,1-.14-2c0-1.58-.24-3-1.84-3.78a1.8,1.8,0,0,0-2.24.55,4.54,4.54,0,0,0-.69,4.71c.86,2.54,3.16,3.77,5.17,5.23,3.48,2.54,7.61,4.18,10.45,7.61,3.44,4.17,3.15,8.24-.86,11.79-6.24,5.52-18.63,6.35-25.26,1.57-2.17-1.58-4.49-3.55-3.47-6.58s3.76-3.66,6.56-3.5c3,.17,5.48,1.32,6.22,4.69.43,2-.4,4.64,2.69,5.15,1.11.19,1.82-.49,2.21-1.57,1-2.87-.27-5-2.44-6.47-2.73-1.89-5.72-3.4-8.51-5.19-6-3.85-8.14-7.9-6.79-12.61,1.13-4,6.69-7.74,12.2-8.22C629.16,73.63,630.49,73.6,630.71,73.59Z" transform="translate(0 -59.23)"/><path class="cls-8" d="M516.93,82c1.36-1.86,2.6-3.84,4.13-5.56,2.58-2.91,6-3.35,9.61-2.63,4.88,1,7.88,5.31,6.58,9.41s-7.08,6.86-11,5.45c-2.6-.93-2.86-2.93-2.64-5.24.33-3.43-1.58-3.44-3.52-1.86-3,2.42-5.51,5.23-5.42,9.59.11,6-.2,12,3.4,17.31,1.11,1.63.36,2.57-1.34,2.67a124.37,124.37,0,0,1-21.14-.23c7.4-5.83,5.65-12.94,5.79-19.63a9.06,9.06,0,0,0-2.56-6.81c-2.12-2.14-2.68-3.46,1.15-3.76,4.48-.35,8.09-2.77,11.7-5.18,1.21-.82,2.59-2.36,4-1.53,1.67,1,.5,3,.37,4.51-.06.8-.21,1.6-.32,2.39Z" transform="translate(0 -59.23)"/></svg>