<svg id="Layer_1" data-name="Layer 1" xmlns="http://www.w3.org/2000/svg" viewBox="0 0 484.38 87.87"><defs><style>.cls-1{fill:#88896c;}.cls-2{fill:#88896b;}.cls-3{fill:#89896c;}.cls-4{fill:#8a8b6e;}</style></defs><path class="cls-1" d="M264.55,414.82c-4-5.45-9.47-7.47-16.19-6.35q-7.86,1.3-15.78,2.2c-1.55.17-3.83.2-3.77-2.12s1.88-2.74,4-2.23a32.15,32.15,0,0,0,5.91.92c8.71.35,16.9-1,23.51-7.41,5.43-5.25,5.66-12.65.64-18.27-2.79-3.13-6.57-4.75-10.76-7,3.34-1.39,5.88,0,8.4.06,3.26.09,5.84-.61,5.8-4.4-.05-3.57-2.25-5.44-5.79-5.45a12.11,12.11,0,0,0-10.94,5.87c-1.59,2.65-3.36,3.13-6.07,3-6.94-.36-13.56.73-19.53,4.69-10,6.62-10.23,17.06-.31,23.93,2,1.39,2.94,2.07,1.08,4.46-3,3.82-1.66,6.89,3.14,7.6,2.78.42,5.65.21,8.47.48,9.43.9,17.35,7.35,19.28,15.58,1.56,6.61-1.64,10.89-8.32,11.17a16.32,16.32,0,0,1-16.92-16.4c0-1.71.13-3.29-1.25-4.61-2.78-2.65-10.48-2.3-14.54.85s-3.1,6.81-.79,10.22c6.55,9.69,16.21,13.33,27.5,13.21,10.18-.1,17.89-4.93,23-13.53C267.36,426.08,268.59,420.29,264.55,414.82Zm-27.5-34.73c2.41-4.45,6.26-4.65,8.67-.28,3.82,6.91,3.15,14.08.23,21.09a4.59,4.59,0,0,1-4.73,3,5.51,5.51,0,0,1-4.45-3.54c-1.53-3.24-1.7-6.71-1.84-11.15A18.06,18.06,0,0,1,237.05,380.09Z" transform="translate(-125.91 -356.93)"/><path class="cls-2" d="M465.87,415.11a15.1,15.1,0,0,0-15.11-6.79c-5.27.65-10.51,1.62-15.78,2.31-1.77.23-3.75.57-5.06-1.22-.57-.78-.16-1.61.38-2.28,1.33-1.62,3-.88,4.64-.64,1.31.2,2.62.52,3.94.6,8.69.54,17-.47,23.85-6.52,6.52-5.75,6.62-13.41.6-19.71-2.55-2.67-6.12-3.74-9.41-6.47,3.15-1,5.42,0,7.71.2,3.38.28,5.69-.74,5.78-4.42.08-3.44-2.05-5.26-5.3-5.38a12.48,12.48,0,0,0-11.72,6.29c-1.38,2.35-2.87,2.75-5.2,2.56a31.66,31.66,0,0,0-18.34,3.6c-11.93,6.64-12.67,17.11-1.71,25.2,1.92,1.42,2.29,2.09.69,4.14-2.88,3.68-1.43,7,3.24,7.76,2.62.43,5.33.21,8,.43,9.29.77,17.41,6.83,19.66,14.6,1.78,6.14-.68,10.85-6.23,11.94-9.35,1.84-19.12-6.23-19-15.69,0-1.64.41-3.31-.86-4.76-2.44-2.78-9.8-2.81-14.07,0-3.85,2.54-4.67,6-1.84,10.36,6.73,10.48,17,14,28.82,13.47,10-.47,17.61-5.52,22.37-14.46C468.58,425.24,469.26,420,465.87,415.11Zm-27.5-35.49c2.67-4,5.93-3.88,8.46.22a15.82,15.82,0,0,1,2.45,9.1c0,4.75-.36,8.58-2.31,12-2.37,4.12-6,4.21-8.58.35C435.29,396.65,435.27,384.23,438.37,379.62Z" transform="translate(-125.91 -356.93)"/><path class="cls-3" d="M179.32,405.43c-3-11.06-6.58-22-9.9-32.95-4-13.31-10.09-17.13-23.83-15-1.74.27-3.15.59-1.78,2.72,2.33,3.6,1.64,7.32.49,11.05-2.93,9.53-5.91,19.06-8.81,28.6C133.91,405,132,410,127.11,413c-.7.43-1.47.93-1.11,1.95s1.33.84,2.12.85c4.49,0,9,.07,13.48,0,1.07,0,2.54.5,3.06-.94s-.78-2.08-1.5-2.93c-2.56-3-4.24-6.28-4.17-10.39,0-2.66.92-3.91,3.81-3.8,4.32.18,8.67.18,13-.06,3.07-.17,4.28,1.24,4.35,4,.09,3.65.49,7.32-.95,10.85-.58,1.41-1.16,3.16,1.35,3.18,8.39.07,16.79,0,26,0C183.92,411.67,180.44,409.54,179.32,405.43ZM156,394.68c-4.17,0-8.33,0-12.49,0-2.66,0-2.53-1.57-2-3.35,2.34-7.79,4.72-15.57,7.55-24.85,5.17,9,7.53,17.36,9.32,25.94C158.77,394.26,157.5,394.68,156,394.68Z" transform="translate(-125.91 -356.93)"/><path class="cls-1" d="M360.58,415.77c-6.49,0-13,0-19.47,0-.93,0-2.14.36-2.64-.81s.62-1.77,1.28-2.42c2.69-2.66,3.4-6,3.4-9.59q0-16.23,0-32.46c0-3.74-.48-7.32-3.58-10-.6-.51-1.41-1.11-1.08-2.05.42-1.25,1.62-.94,2.54-.95q10.25,0,20.48,0c1.51,0,3.68.28,2.14,2.36-3.4,4.62-3.58,10-4,15.21-.81,11-1,21.91,1.44,32.78,1,4.52,3.5,5.63,7.56,4.64,6-1.46,10.08-5.52,13.78-10.15.83-1,1.47-3.25,3.24-2.33,1.54.8.61,2.72.38,4.11-2,11.86-2,11.84-14,11.72-3.83,0-7.66,0-11.49,0Z" transform="translate(-125.91 -356.93)"/><path class="cls-1" d="M292.32,373.54c-13.11.12-23,9.3-22.92,21.21s10.38,21.17,23.2,21c12.31-.12,22.66-9.93,22.54-21.36C315,382.81,304.78,373.43,292.32,373.54Zm3.42,36.11c-1.77,3.9-4.75,3.73-7.06-.11-2.83-4.72-2.88-10.12-3.3-15.31.4-4.9.62-9.71,3-14.07s5.45-4.84,7.46-.35A35.13,35.13,0,0,1,295.74,409.65Z" transform="translate(-125.91 -356.93)"/><path class="cls-2" d="M587.39,373.47c-12.61,0-23.12,9.87-23,21.47.15,11.31,10.66,20.8,23.06,20.82,12.7,0,22.93-9.62,22.8-21.48C610.16,382.67,600,373.43,587.39,373.47Zm6.18,28a28,28,0,0,1-.76,3.41c-.91,3.14-1.23,7.4-5.34,7.43-3.81,0-4.22-4.14-5.25-7-1.23-3.51-1.25-7.2-1.34-10.86a30.39,30.39,0,0,1,2.63-14.1c.8-1.65,1.56-3.5,3.77-3.54,2.65-.05,3.77,2.08,4.52,4.05A38.82,38.82,0,0,1,593.57,401.5Z" transform="translate(-125.91 -356.93)"/><path class="cls-1" d="M513.1,403.29c-1.26-1.54-2.27.18-3.28.87-.69.46-1.32,1-2,1.45-7.23,4.42-15.58,1.79-18.46-6.17,5.22,1.32,10.27,1.78,15.09-.66,4.56-2.29,7.95-5.67,8.46-10.93s-3-8.57-7.07-11.16c-4.53-2.89-9.6-3.62-14.87-3.05-16.34,1.75-25.38,17.81-17.59,31.23,5.53,9.52,18.82,13.64,29.33,9.12a21.09,21.09,0,0,0,9.37-7.2C512.8,405.72,514.09,404.5,513.1,403.29Zm-19.29-26.55c3,0,5.37,4.68,5.26,10.61-.1,5.67-2.55,10-5.53,9.88-3.18-.17-5.34-4.2-5.38-10C488.12,381.67,490.78,376.75,493.81,376.74Z" transform="translate(-125.91 -356.93)"/><path class="cls-1" d="M201.16,415.81h-10c-2.29,0-3.6-1-1.39-2.78,3.76-3.08,3.79-7.13,3.78-11.34,0-8,0-16,0-24,0-3.44-.45-6.6-3.43-8.92-1.31-1-2.37-2.84.29-3,6.34-.39,11.24-3.74,16.34-6.86,1.17-.72,2.6-2.17,4-.93,1.1,1,.17,2.51-.05,3.79a143.35,143.35,0,0,0-.47,42.23c.36,2.79.83,5.68,2.42,8.05,1.9,2.83,1.18,3.82-2,3.76S204.32,415.81,201.16,415.81Z" transform="translate(-125.91 -356.93)"/><path class="cls-1" d="M538.3,382.2c2.58-2.47,4.48-4.58,6.68-6.32,4.13-3.3,8.66-3.12,13.09-.65,4.08,2.28,5.47,7,3.34,10.69-2.32,4-9.38,6.51-12.69,4.43-2.06-1.29-2.59-3.3-1.81-5.68.3-.92.56-2.1-.37-2.78a2.58,2.58,0,0,0-3.24.36c-3.33,2.82-6.51,5.65-6.31,10.7.27,6.94-.75,14,3.9,20.16,1.06,1.39.3,2.64-1.5,2.65-6.83,0-13.67.08-20.49-.08-2.71-.06-1.79-1.6-.85-3,5.43-8,5.45-19.81,0-27.79-1-1.49-1.67-2.95.85-3.06,5.83-.26,10.36-3.28,14.91-6.41,1.31-.9,2.92-2.41,4.46-1.4s-.21,2.75,0,4.21A31.33,31.33,0,0,1,538.3,382.2Z" transform="translate(-125.91 -356.93)"/><path class="cls-1" d="M401.43,415.77c-3.16,0-6.33,0-9.49,0-2.39,0-3-.69-1.39-2.91,5.51-7.42,5.45-20.35-.07-28.12-1.2-1.7-1.32-2.75,1-2.93,5.7-.44,10.48-2.91,14.88-6.4,1.13-.9,2.8-2.08,4-1.36,1.71,1,.58,2.95.4,4.5-1,8.58-2.37,17.13-.77,25.81.55,3,1.17,5.82,3.14,8.27s.69,3.19-1.82,3.19h-10Z" transform="translate(-125.91 -356.93)"/><path class="cls-4" d="M407.28,362.83a4.07,4.07,0,0,1-2.47,3.51c-3,1.49-6,2.8-9.07,4.12-.94.41-2,.59-2.69-.43a1.8,1.8,0,0,1,.47-2.27c2.61-2.55,5-5.36,7.94-7.54A3.51,3.51,0,0,1,407.28,362.83Z" transform="translate(-125.91 -356.93)"/></svg>