<svg id="Layer_1" data-name="Layer 1" xmlns="http://www.w3.org/2000/svg" viewBox="0 0 160.8 61.08"><defs><style>.cls-1{fill:#88896c;}.cls-2{fill:#88896b;}.cls-3{fill:#89896d;}.cls-4{fill:#8b8b73;}</style></defs><path class="cls-1" d="M-37.64,449.8c.12-2.22-1.74-3-3-4.26-.71-.69-1.74-1.37-1.4-2.44.44-1.4,1.84-1.11,3-1.13,2.48-.06,5-.08,7.44-.12,11.31.84,11.87,1.34,15.65,12.4a167.85,167.85,0,0,0,8.57,21.28c2.55-6.89,5.24-13.73,7.61-20.68C4.51,442.17,4.43,442.14,18,442.07a23,23,0,0,1,3,0c2.06.27,4.9-1.08,5.95,1.15.79,1.71-2,2.76-2.94,4.24a10.84,10.84,0,0,0-1.78,6.13c0,12-.11,24-.1,35.95A11.86,11.86,0,0,0,26,498.91c2,1.77,1.32,2.9-1.19,2.91-7.32,0-14.65,0-22,0-1.39,0-3.07-.23-1.94-2.22C7.57,487.79,5,474.93,5.37,462.43c.07-2.39.36-5-1.4-7.54-2.65,4.74-3.81,9.75-5.54,14.52l-10,27.66c-.66,1.84-.88,4.36-3.32,4.41-2.26,0-2.44-2.43-3-4.06-4.6-12.65-9.12-25.33-13.67-38a5.14,5.14,0,0,0-2.22-2.88c0,12.5,0,25,0,37.5,0,3.6,4.87,4,5.09,7.54-4.65,1.06-9.29,2.16-14,.13-1.58-1.67.17-2.6,1.06-3,4-1.94,4.35-5.24,4.28-9.12C-37.53,476.31-37.54,463.05-37.64,449.8Z" transform="translate(43.28 -441.77)"/><path class="cls-2" d="M75.55,498.17a11.42,11.42,0,0,1-3.22-8.63c0-3.16,0-6.33,0-9.49-.19-10.87-6-18.43-16.56-20.76-7.09-1.57-14-1-19.6,4.39-3.08,3-3.27,6.56-.49,8.1,3.41,1.9,7.07,1.5,10.6,0,3.22-1.34,2.21-4,2-6.45-.12-1.1-.57-2.51.75-3.11,1.54-.7,2.52.63,3.31,1.62,3.37,4.26,4.18,9.2,3.63,15.28-2-1.3-3.16-2.18-4.44-2.91-9-5.13-20.66.94-21.15,11-.28,5.73,2.35,10,7.25,12.68,5.07,2.79,10.15,2.52,15.12-.64,1.21-.77,2.47-3.52,4-1.61,4.78,5.91,11.26,3.72,17.19,4.14,1.07.07,2.52.39,3.15-.87C77.75,499.54,76.31,498.94,75.55,498.17Zm-25.77-2.66c-3.28.38-5.64-2.89-5.68-7.31,0-3.89,1.17-7,5.52-7.45,3.25-.35,5.78,3,5.8,8C55.28,491.82,54.1,495,49.78,495.51Z" transform="translate(43.28 -441.77)"/><path class="cls-3" d="M98.9,458.7c5.5-.25,10.52.81,14.83,4,2.41,1.77,4.86,4.07,3.26,7.52s-4.81,3.82-8.12,3.52-5.78-1.63-6.43-5.17c-.17-1-.06-2-.18-3-.24-2-1-3.83-3.36-3.33-2,.44-2.77,2.28-2.46,4.33a9.5,9.5,0,0,0,4.75,6.68c3.5,2.24,7.07,4.38,10.48,6.75,8.1,5.6,7.77,13.77-.83,18.61s-17.28,4.16-25.74-.26c-2.84-1.48-5.31-4.08-4.39-7.67.81-3.18,3.84-3.8,6.8-3.94,3.66-.18,6.59.94,7.91,4.65a13.91,13.91,0,0,1,.58,3.43c.17,1.76.38,3.5,2.8,3.11,2-.33,2.63-1.8,2.65-3.66,0-3.28-2.1-5.15-4.54-6.68-3.65-2.3-7.53-4.27-11.11-6.69-7.5-5.07-7-14.76.86-19.21A21.48,21.48,0,0,1,98.9,458.7Z" transform="translate(43.28 -441.77)"/><path class="cls-4" d="M46.46,453.93c-.7-.38-1.45-.54-1.76-1a2,2,0,0,1,.44-2.7c2.6-2.54,5.1-5.21,7.91-7.5,1.92-1.56,4.08-1.24,5.51,1,1.33,2.12.66,4-1.36,5C53.71,450.64,50.09,452.22,46.46,453.93Z" transform="translate(43.28 -441.77)"/></svg>