<svg id="Layer_1" data-name="Layer 1" xmlns="http://www.w3.org/2000/svg" viewBox="0 0 409.32 58.59"><defs><style>.cls-1{fill:#88896c;}.cls-2{fill:#88896b;}.cls-3{fill:#88896a;}</style></defs><path class="cls-1" d="M-5.69-367.85c1.31,2.15,4.33,3.35,3.57,6.67-.52,2.24-1.46,4.32-3.66,5-3,.91-6.07.7-8.4-1.68-1.84-1.89-3.31-4.14-5-6.16a5,5,0,0,0-4.86-2c-2.42.47-1.57,2.66-1.71,4.1-.45,4.8-.74,9.62-.9,14.44-.06,1.71-.9,4,1.16,5s4.24.11,6.21-.85a7.88,7.88,0,0,0,1.53-1.27c1.45-1.26,2.05-4.63,3.94-3.88,2.47,1,.71,4.16,1.09,6.35a7.37,7.37,0,0,1,0,2c-.27,2.42,1.26,6-.82,7-2.54,1.28-2.93-2.73-4.59-4.1a7.77,7.77,0,0,0-7-1.7c-2.82.73-1.42,3.37-1.38,5.09.12,5.15.71,10.29.89,15.44.08,2.53,1,3.32,3.56,3.54,7.09.6,12.78-1.25,16.51-7.73.68-1.17,1.5-3.15,3.17-2.65,1.85.55.91,2.61.92,4,.07,10.65.82,9.3-9.33,9.38-11.15.09-22.31,0-33.46-.05-1,0-2.53.56-3-.94-.36-1.11.76-1.74,1.47-2.38,2.43-2.19,3.11-5,3.12-8.13q.07-17.48.06-35a9.6,9.6,0,0,0-3.53-7.9c-.77-.63-2.6-1.29-1.37-3,10.53-.65,21.07,0,31.6-.26C-12.4-369.63-8.77-370.54-5.69-367.85Z" transform="translate(47.97 369.76)"/><path class="cls-2" d="M50.3-339.92A56.28,56.28,0,0,1,51.4-326c-.12,4.26.22,8.23,3.81,11.35,2.11,1.83.9,2.8-1.42,2.81H34.31c-2.64,0-3.21-.93-1.73-3.34,5.67-9.29,3.65-18.89.74-28.42-.69-2.28-2.3-4.25-4.84-4.55-2.84-.34-4.28,2-5.08,4.09-3.66,9.4-3.48,19,1,27.94,1.95,3.94,1.18,4.39-2.55,4.3-5.66-.13-11.32,0-17-.06-1.06,0-2.51.56-3.1-.84-.47-1.11.72-1.7,1.3-2.45,4.89-6.25,4.8-20.53-.23-27-1-1.31-2-3.33.24-3.15,5.93.45,9.26-4.62,14.12-5.83,9.15-2.28,18.59-4.81,27.1,2.21C48.49-347.44,48.76-343.25,50.3-339.92Z" transform="translate(47.97 369.76)"/><path class="cls-3" d="M69.36-352.95c5.6-.73,11.21-1.75,16.7.55a35.67,35.67,0,0,1,4.56,2c2.87,1.68,5.35,4,4.31,7.61-.91,3.14-4,3.74-6.93,3.8-3.59.08-6-1.52-7.16-5a6.67,6.67,0,0,1-.26-1.47c-.16-1.79.19-3.84-2.07-4.61a2.18,2.18,0,0,0-2.69.78,5.63,5.63,0,0,0,.15,6.13c1.54,2.45,3.89,4.06,6.31,5.56,2.11,1.32,4.29,2.56,6.33,4,8.94,6.24,9.09,11.52.62,18.53-.64.39-1.27.79-1.9,1.19-6.16,3.54-12.5,3.39-19,1-2.83-1.39-5.73-2.63-7.63-5.38-1.71-2.47-1.57-4.78.71-6.61,2.74-2.2,6-1.75,9.06-.83,2.57.79,3.75,3.06,3.84,5.83.06,1.76-.31,3.84,2,4.56,1.28.39,2.17-.36,2.86-1.44,1.25-1.95.88-3.72-.31-5.56-1.41-2.2-3.53-3.45-5.72-4.64-3.21-1.74-6.55-3.26-9.32-5.7-7.12-6.26-6-14.5,2.44-18.6C67.36-351.82,68.35-352.4,69.36-352.95Z" transform="translate(47.97 369.76)"/><path class="cls-1" d="M351.3-312.9c-5.93,1-11.85,1.76-17.67-.58a16,16,0,0,1-2.73-1.22c-2.83-1.83-6.11-3.92-5.14-7.71s4.75-4.12,8.23-3.88c3.92.27,6.06,2.31,6.31,6.31.12,1.75-.22,3.84,2.08,4.61,1.29.44,2.2-.23,2.91-1.31,1.26-1.95.86-3.8-.24-5.62-1.45-2.41-4-3.46-6.21-4.88-3.07-2-6.39-3.63-9.2-5.92-6-4.94-5.51-13.22,1.24-17.17,8.55-5,17.39-5,26,.11,2.69,1.6,5,3.83,4.07,7.23-.9,3.2-3.92,3.84-6.88,3.85-3.44,0-6.23-1.13-7.16-4.87a22.26,22.26,0,0,1-.36-2.47c-.26-1.81-.27-4-2.95-3.64s-2.69,2.65-2.4,4.65c.46,3.3,3.12,4.94,5.57,6.64,3.14,2.16,6.46,4.08,9.47,6.41,6.24,4.83,6.64,9,1.77,15.2Z" transform="translate(47.97 369.76)"/><path class="cls-1" d="M271.67-315.31a10.72,10.72,0,0,1-3.26-8.06c.41-14.09-1.27-28.27,2-42.24.25-1.05.91-2.46-.18-3.27-1.29-1-2.56.11-3.66.77-3.26,2-6.28,4.41-10,5.56-2.36.73-5.71.36-7,1.88-2.05,2.33,2.88,3.89,2.14,6.91-2.49,0-4.78-.11-7.06,0-12,.68-21.34,9.72-21.41,20.72a21,21,0,0,0,19.87,21c9.13.43,18.29.1,27.43.06.91,0,2.17.39,2.56-.87S272.34-314.62,271.67-315.31Zm-22.31-3.29c-.7,1.68-1.57,3.42-3.83,3.36s-3.12-1.76-3.9-3.4a27.93,27.93,0,0,1-2.52-13.05c0-6,.31-10.93,2.65-15.5.87-1.68,1.84-3.13,4.09-3,2.09.1,2.79,1.66,3.41,3.16A35.72,35.72,0,0,1,249.36-318.6Z" transform="translate(47.97 369.76)"/><path class="cls-2" d="M218.63-314.88c-3.37-2.73-3.63-6.48-3.63-10.41,0-5.3.23-10.59-1.71-15.75-4.6-12.2-23.34-17.15-32.7-8.47-2.13,2-4.35,4.53-2.38,7.33,2.48,3.55,6.51,2.6,10.09,1.72,2.95-.73,4.7-2.35,3.43-5.82-.46-1.26-1.24-3.09.88-3.77,1.73-.55,2.81.68,3.61,2,2.48,4.14,3.17,8.66,2.78,14.25a37.72,37.72,0,0,0-4.23-2.83c-4.77-2.23-9.53-2.64-14.19.4s-7,7.52-6.16,13.18c1.49,9.92,12.74,14.18,21.87,8.48,1-.64,1.94-3.3,3.52-1.36,4.78,5.87,11.28,3.55,17.21,4,.92.07,2.11.28,2.61-.89C220-313.78,219.25-314.38,218.63-314.88ZM192.84-318c-4.22-.38-5.07-3.58-5.45-6.93.32-3.66,1.24-7.12,5.43-7.14,4,0,5.5,3.14,5.66,6.79C198.67-321.07,196.12-317.73,192.84-318Z" transform="translate(47.97 369.76)"/><path class="cls-2" d="M138.57-331.13a36.93,36.93,0,0,0-.29-5.47c-1.42-8.11-6-13.58-14-16-7.44-2.23-14.53-1.86-20.5,3.8-1.85,1.76-3.54,4.24-1.64,6.62,2.85,3.58,6.85,2.5,10.58,1.43,2.65-.76,3.85-2.29,2.79-5.24-.5-1.4-1.34-3.54,1-4.13,1.83-.46,3.11.95,3.84,2.56a24.33,24.33,0,0,1,2.28,13.69,41,41,0,0,0-3.53-2.58c-9-5.11-20.46.58-21,10.3a12.39,12.39,0,0,0,6.77,12.35c5.14,2.9,10.17,2.38,15.09-.73,1.16-.74,2-3.26,4-1.08,5.72,6.3,12.87,2.82,20,3C137.18-317.58,138.72-324.57,138.57-331.13ZM116.65-318c-4.32-.32-5.25-3.65-5.27-7.09s1.12-6.69,5.35-7c3.18-.26,5.55,2.77,5.63,6.79S119.87-317.82,116.65-318Z" transform="translate(47.97 369.76)"/><path class="cls-1" d="M320.77-315.13c-2.85-2.59-3.45-5.92-3.4-9.53,0-3.33.12-6.67-.09-10-.54-8.5-5-14.39-12.81-17.41-7.39-2.85-14.74-2.68-21.22,2.55-2.26,1.83-4.18,4.52-2.33,7.39,2.34,3.62,6.3,2.46,9.6,1.69,2.72-.63,4.82-2.39,3.57-5.87-.52-1.45-.89-3.17,1-3.82,1.63-.57,2.87.63,3.67,2a20.89,20.89,0,0,1,2.59,13.45c-2,.1-3-1.48-4.47-2.17-5.32-2.54-11.76-1.71-15.79,2.2s-5.43,9.73-3.29,14.58c3.38,7.65,12.33,10.19,20.33,5.88,1.31-.7,2.66-3.09,4.24-1.37,4.88,5.29,11.13,3.28,16.94,3.63.91.06,2.12.38,2.67-.73S321.45-314.51,320.77-315.13Zm-19.65-9.71c-.36,3.44-1.4,7-5.79,6.68S290-322,290-325.66c.32-3.61,1.44-6.44,5.5-6.6C298.78-332.39,301.54-328.86,301.12-324.84Z" transform="translate(47.97 369.76)"/><path class="cls-2" d="M152.07-336.37c0-4.16,0-8.33,0-12.49,0-2.71-.21-5.59-2.15-7.52-3.51-3.49-2.76-4.89,1.9-5.37s8.28-3.31,12.05-5.73c1.24-.79,2.5-2.2,4-1.47,1.75.86.68,2.74.51,4A185.79,185.79,0,0,0,167.14-334c.22,6.5.59,13,3.74,18.91,1.1,2.07.61,3.19-1.79,3.19q-9.75,0-19.49-.09c-1.35,0-3.41-.52-1.72-2.08,5.84-5.41,3.94-12.3,4.22-18.79.05-1.17,0-2.33,0-3.5Z" transform="translate(47.97 369.76)"/></svg>