<svg id="Layer_1" data-name="Layer 1" xmlns="http://www.w3.org/2000/svg" viewBox="0 0 875.19 78.33"><defs><style>.cls-1{fill:#88896c;}.cls-2{fill:#88896b;}.cls-3{fill:#89896c;}.cls-4{fill:#89896d;}.cls-5{fill:#89896b;}.cls-6{fill:#898a6e;}</style></defs><path class="cls-1" d="M353.7,344.73c6.71-.36,12.2-3.25,17.31-7,1.08-.79,2.37-1.8,3.64-1.12,1.84,1-.25,2.72.54,4.51,3.45-4.57,7.8-6,13.06-4.11,4.78,1.71,7.83,5.39,10.64,10,1.27-2.19,2.1-4,3.24-5.55,5.71-7.93,16.94-6.47,22.71,2.83,3.3,5.33,4,11.16,3.85,17.26-.15,4.84-.27,9.67,3.87,13.38,1.7,1.53.93,2.69-1.24,2.7q-9.74.06-19.47,0c-3,0-2.81-1.56-1.55-3.56,5.13-8.13,3.95-16.88,2.33-25.6-.48-2.62-1.52-5.53-4.65-5.85s-4.7,2.56-5.38,5c-2.56,9.2-4.12,18.46,2,27,1.64,2.28.63,2.92-1.63,2.92-6.33,0-12.65,0-19,0-2.68,0-3.2-1.11-1.77-3.42,5.37-8.64,4.15-17.82,1.86-27-.56-2.2-1.79-4.61-4.56-4.68s-3.39,2.48-4.07,4.44c-3.17,9.13-3.53,18.22,1.33,26.93,1.33,2.4,1.56,3.73-1.68,3.76-6.33,0-12.65.09-19,.06-2.48,0-2.88-.95-1.33-3,5.64-7.65,5.36-20.67-.46-28A9.23,9.23,0,0,1,353.7,344.73Z" transform="translate(144.55 -320.32)"/><path class="cls-2" d="M305.77,366.66c0-2.33,0-4.66,0-7,0-1.17,0-2.49,1.3-3,1.46-.57,2.05.84,2.72,1.67,3.45,4.25,6.5,8.87,11,12.22,2.28,1.72,4.61,3.35,7.48,3.82,2.21.36,4.28.13,5.74-2a5.6,5.6,0,0,0,.07-6.53c-2.08-3.42-5.56-5.15-8.76-7.22-4.75-3.06-9.84-5.64-13.84-9.75-9-9.23-6-22.68,6.18-26.81a31.63,31.63,0,0,1,24.72,1.77,14.27,14.27,0,0,1,2.5,1.62c3.31,2.63,6.08,5.93,4.44,10.24-1.51,3.95-5.57,4.42-9.38,3.91-4.6-.6-7.65-3.09-8.33-7.9a43.46,43.46,0,0,0-.41-4.46c-.59-2.32-2-3.86-4.67-3.53s-3.76,1.9-4,4.36c-.35,3.75,1.74,6.46,4.32,8.57,4.23,3.47,8.8,6.53,13.18,9.83a58.74,58.74,0,0,1,6.14,5.06c7.54,7.51,6.26,17-2.94,22.4-6.87,4-14.16,4.91-21.59,2.13-4.34-1.63-8.26-2.25-12.3.54-2.17,1.49-3.43.67-3.46-1.94s0-5.33,0-8Z" transform="translate(144.55 -320.32)"/><path class="cls-2" d="M-144.51,367.09c0-2.5,0-5,0-7.49,0-1.15-.12-2.57,1.25-3s2,.9,2.66,1.84a57.53,57.53,0,0,0,9.81,11.25,18.33,18.33,0,0,0,8.71,4.63c2.26.39,4.32,0,5.68-2.17a5.55,5.55,0,0,0,0-6.12c-2-3.73-5.81-5.35-9.14-7.49-4.6-3-9.47-5.51-13.38-9.49-4.71-4.8-6.75-10.37-4.77-16.84,2.07-6.75,7.44-10.17,14-11.21,8.55-1.34,16.94-.89,24.26,4.7,3.13,2.4,5.18,5.34,4.2,9.38-.84,3.47-3.82,4.42-7,4.52-4.43.13-8.39-1-10.19-5.58a22.67,22.67,0,0,1-1-5.86c-.34-3.22-2-5.12-5.25-4.41s-4.19,3.14-3.49,6.17a12.28,12.28,0,0,0,4.93,7.29c5.11,3.71,10.3,7.3,15.31,11.14s9.3,8.25,8.15,15c-1.26,7.33-6.81,11.11-13.57,13.16a23.24,23.24,0,0,1-16.12-.71c-3.91-1.64-7.69-1.93-11.43.47-2.58,1.65-4,1.15-3.8-2.2C-144.42,371.76-144.51,369.42-144.51,367.09Z" transform="translate(144.55 -320.32)"/><path class="cls-2" d="M-3.17,338.14a23.69,23.69,0,0,0-20.31.54c-5.4,2.56-10.56,5.66-17.31,6.67,6.32,4.33,5.29,10.44,5.29,16.24,0,7.83,0,15.66.06,23.49,0,3.94-.22,7.66-3.57,10.43a2.79,2.79,0,0,0-1.07,2.06c.21,1.24,1.51,1.08,2.45,1.08,6.5,0,13,0,19.49,0,2.66,0,3.35-1,1.75-3.32-1.94-2.81-2.68-6.11-3.19-9.39-.45-2.89-2.15-6.34-.18-8.62,1.48-1.7,4.64.64,7.11.26a19,19,0,0,1,2,0c9.32-.53,18.3-8.07,20-16.79C11.23,351.36,6.26,342.24-3.17,338.14ZM-9.43,372c-2,3.33-4.19,3.27-6.43,0-4.25-6.13-4.5-23.44-.42-29.8,2.48-3.88,5.08-3.77,7.36.39,2.48,4.52,2.67,9.51,2.71,14.51C-6.09,362.3-6.67,367.4-9.43,372Z" transform="translate(144.55 -320.32)"/><path class="cls-2" d="M584.62,340c14.88-7.81,27.16-1.27,29.16,15.42a68.54,68.54,0,0,1,.46,9c-.06,4,.54,7.62,3.76,10.38.6.51,1.43,1,1.08,2s-1.34.82-2.12.83c-6.49,0-13,.1-19.47,0-2.9,0-3.16-1.08-1.73-3.75,5.1-9.53,3.6-19.33.14-28.94-.79-2.21-2.55-4.81-5.61-3.86a7.93,7.93,0,0,0-5.95,7.32c-.17,8.78-.66,17.75,3.62,25.88,1.36,2.59.73,3.35-1.77,3.37-6.32.05-12.65,0-19,0-1,0-2.24.16-2.48-1.05-.12-.6.53-1.53,1.07-2.05,3.08-2.91,3.55-6.61,3.52-10.54-.05-6.49-.07-13,0-19.47.06-4.88.18-9.68-4-13.33-1.29-1.14-1.35-2.42.84-2.58,5.89-.41,10.75-3.14,15.38-6.54,1.13-.83,2.6-2.12,4.06-1.1s.14,2.44.06,3.71C585.36,329.73,583.85,334.74,584.62,340Z" transform="translate(144.55 -320.32)"/><path class="cls-1" d="M282.48,374.69a12.46,12.46,0,0,1-3.76-9c.15-14-.89-28,2-41.81.22-1,1.23-2.29-.29-3.08-1.2-.62-2.23.24-3.24.8-3.19,1.75-5.8,4.54-9.49,5.42-2.57.62-6,.38-7.52,2-2.06,2.18,2.78,4,2.09,6.75,0,.16-.08.33-.14.55-2.78,0-5.6-.16-8.39,0-10.87.74-19.8,9.74-20,20s8.27,20.21,18.93,21c9.45.68,19,.25,28.46.28C283.74,377.62,284.26,376.57,282.48,374.69Zm-22.79-3.18c-2.21,3.89-5.16,4.13-7,.15a34.42,34.42,0,0,1-.07-29.35c1.91-4.25,4.94-4,7.23.2,2.4,4.37,2.76,9.16,2.65,14C262.71,361.74,262.31,366.87,259.69,371.51Z" transform="translate(144.55 -320.32)"/><path class="cls-2" d="M-69.25,345a35.86,35.86,0,0,0,18.69-7.49c1-.72,2.1-1.38,3.21-.68,1.35.84.24,2.1.14,3.16-.75,7.95-1.93,15.9-.25,23.86a45.2,45.2,0,0,0,2.51,8.58c2.24,5.26,2.38,5.13-3.64,5.26-5.61.12-11.24.47-14.08-6.17-3.44,3-6.28,6-10.92,6.18-10.24.29-17-5.6-17.87-16-.47-5.78-.15-11.73-6.54-16.67a34.63,34.63,0,0,0,18.86-7.46c.91-.71,2.23-1.39,3.23-.6s.41,2.22.21,3.32C-77,347.09-77.83,354-76.62,361a33,33,0,0,0,1.2,5.34c1.07,3,2.36,6.49,6.3,5.85,3.72-.6,5.41-4,5.58-7.42C-63.19,357.9-62.15,350.71-69.25,345Z" transform="translate(144.55 -320.32)"/><path class="cls-2" d="M117.17,377.63c-3.33,0-6.66.05-10,0-2.18-.05-2.82-1.08-1.19-2.74,7.72-7.92,3-17.75,4.13-26.68.18-1.53-1.38-1.54-2.32-2.13-1.76-1.11-2-3.56-.49-4.11,3.19-1.18,2.79-3.59,3.3-5.95,3.46-15.94,23.32-19.22,33.22-11.71,2.84,2.15,4.28,5.17,2.31,8.27-2.28,3.6-6.18,3.52-9.88,2.35-3.55-1.12-4.53-3.52-3.16-7,.49-1.28,1.21-3.19-.62-3.87s-2.69,1-3.24,2.41a47.08,47.08,0,0,0-2.34,7.09c-1.45,6.5-1.38,6.52,5.13,7.55,1.53.24,3.15.46,3.18,2.46a2.63,2.63,0,0,1-3.32,2.8c-6.68-1.16-6.8,2.69-6.29,7.57.74,7.07.07,14.36,3.49,21,1.1,2.14-.14,2.72-1.92,2.75C123.84,377.67,120.5,377.63,117.17,377.63Z" transform="translate(144.55 -320.32)"/><path class="cls-2" d="M459.18,336.28c-12.44-.08-22.5,9-22.57,20.39s9.82,20.78,22.18,20.89,22.53-9.21,22.56-20.48C481.39,345.47,471.68,336.36,459.18,336.28Zm3.27,35.29c-2.33,3.85-5.1,4-6.93,0a34.26,34.26,0,0,1,0-29.31c1.79-4,4.81-3.82,7,0,2.53,4.45,3,9.41,2.93,14.44S465.22,367,462.45,371.57Z" transform="translate(144.55 -320.32)"/><path class="cls-1" d="M507.13,336.26c-12.73,0-22.79,9.17-22.73,20.77.06,11.13,10.05,20.45,22,20.54,12.7.1,22.84-9.4,22.81-21.37C529.21,345.62,518.84,336.27,507.13,336.26Zm3.58,34.53c-.67,1.71-1.7,3.42-3.82,3.47s-3.19-1.61-4-3.29c-2.09-4.45-2.55-9.22-2.57-14.87,0-4.2.34-9.17,2.8-13.69.78-1.42,1.7-3.12,3.58-3.13,2.13,0,3.12,1.75,3.82,3.44A36.25,36.25,0,0,1,510.71,370.79Z" transform="translate(144.55 -320.32)"/><path class="cls-1" d="M207.77,336.27c-12.34.18-21.65,9.17-21.54,20.79s10,20.67,22.43,20.52,22-9.38,22-21.15C230.58,345.13,220.34,336.08,207.77,336.27Zm4.17,35.09c-2.11,3.93-5.08,4.22-6.93.29a34.37,34.37,0,0,1-.17-29.47c1.7-3.86,5-3.66,7.09.09,2.55,4.51,2.9,9.49,2.76,14.54C214.86,361.87,214.39,366.82,211.94,371.36Z" transform="translate(144.55 -320.32)"/><path class="cls-1" d="M160.38,336.25c-12.81.08-22.2,8.87-22.13,20.7.08,11.56,10.07,20.8,22.35,20.67s22.05-9.4,22-21.09C182.63,345.44,172.46,336.18,160.38,336.25Zm3.63,35c-.81,1.42-1.44,3.07-3.51,3.09a4,4,0,0,1-3.73-2.82,37.2,37.2,0,0,1-.13-29c.6-1.5,1.61-3,3.59-3,2.21-.05,3.19,1.6,4,3.23a27.14,27.14,0,0,1,2.44,13.7C166.8,361.79,166.57,366.75,164,371.26Z" transform="translate(144.55 -320.32)"/><path class="cls-3" d="M54.21,365.19c-1.44-1.38-2.21.62-3.16,1.3-7.83,5.63-16.47,3.77-20-5,6,1.39,11.39,1.66,16.44-1.44,8.79-5.4,9-14.88.28-20.45s-20.93-4.37-28.63,2.93c-5.81,5.51-7.95,12.09-5.54,19.91,2.7,8.78,9.23,13.39,17.75,14.82,8.81,1.47,16.4-1.58,22.19-8.57C54.34,367.7,55.33,366.27,54.21,365.19ZM31.55,342.67c.81-1.64,1.9-3.32,4-3.25,2.35.07,3.25,1.94,4,3.85a15.83,15.83,0,0,1,.87,6.52,12.11,12.11,0,0,1-1.09,6.11c-.76,1.68-1.57,3.49-3.71,3.57a4.72,4.72,0,0,1-4.52-3.33A16,16,0,0,1,31.55,342.67Z" transform="translate(144.55 -320.32)"/><path class="cls-1" d="M692,365.15c-1.24-1.28-2,.2-2.85.87-6.93,5.83-17.87,4.55-20.49-4.21,5,1,9.58,1.39,14-.42,8-3.27,11.35-11.63,7.07-17.66-4.48-6.29-14.65-9.12-23.56-6.56s-15.3,9.9-15.83,17.93c-.64,9.83,5.33,18.26,15.19,21.44,9.35,3,20.9-.7,25.76-8.32C691.93,367.32,693.12,366.28,692,365.15Zm-22.46-23.08c2.48-3.78,5.48-3.59,7.37.5a18.36,18.36,0,0,1,1.31,7.09c-.15,1-.29,1.8-.39,2.62-.41,3.18-.86,7.05-4.78,7-4.31-.07-5-4.13-5.39-7.67A14.15,14.15,0,0,1,669.56,342.07Z" transform="translate(144.55 -320.32)"/><path class="cls-1" d="M713.22,336.27c4.93-.09,9.64.74,13.73,3.67,2.41,1.73,4.38,4,3.2,7.14s-4,3.66-7,3.52c-3.27-.16-5.88-1.24-6.71-4.77-.23-1-.15-2-.36-3-.39-1.84-.86-3.87-3.45-3.12-2.28.66-2.39,2.7-1.94,4.52a10.42,10.42,0,0,0,4.74,6.17c3.63,2.34,7.4,4.51,10.79,7.15,6.1,4.75,5.86,11.16-.33,15.8-6.9,5.18-18.88,5.73-26,1-2.82-1.87-5.74-4.22-4.16-8.1,1.3-3.18,4.66-3.76,7.69-3.32,3.46.51,6.39,2.08,6.24,6.42-.06,1.84-.08,3.77,2,4.67,1.36.58,2.28-.33,2.91-1.3,1.33-2.05,1-4-.47-6-1.7-2.2-4.1-3.33-6.36-4.7s-4.26-2.61-6.39-3.9c-4.15-2.54-6.79-6-6-11.09s4.18-7.69,8.57-9.52C706.92,336.38,710.06,336.3,713.22,336.27Z" transform="translate(144.55 -320.32)"/><path class="cls-4" d="M57.53,344.87c6.38-.84,11.82-2.58,16.47-6.36,1.35-1.1,3.13-2.79,4.84-1.6,1.55,1.07-.12,3.07-.06,4.68,0,.79,0,1.6,0,2.58,2.47-.67,3.43-2.78,4.93-4.21a11.94,11.94,0,0,1,9.94-3.62c5.5.59,9.43,4.69,8.89,9.39-.5,4.29-6,8.19-10.81,7.67-3.51-.38-4.92-2.32-4.45-5.8.17-1.24.82-2.84-.79-3.55-1.41-.62-2.52.54-3.49,1.38-3.39,2.93-5.74,6.27-5.45,11.16.37,6.29-.16,12.68,3.81,18.21,1.38,1.92.28,2.77-1.65,2.78q-9.72.07-19.46,0c-2,0-2.77-.65-1.36-2.73C64.76,366.2,64.37,354.4,57.53,344.87Z" transform="translate(144.55 -320.32)"/><path class="cls-2" d="M546.13,377.61h-9c-2.65,0-3.72-.46-2.07-3.45,4.44-8,3.45-16.65,2.32-25.24-.24-1.83-1.41-2.37-3.06-2.66s-2-1.64-1.85-3.08a2.31,2.31,0,0,1,2.41-2.1c6.32-.38,10.14-4.35,13.49-9.14a11.11,11.11,0,0,1,3.77-3.91c2.78-1.45,4.17-.57,4,2.49a38.37,38.37,0,0,1-.8,5.41c-.58,3-.41,5.34,3.59,5.26,1.81,0,2.71,1,2.56,2.9s-1.6,2.48-3.18,2.29c-4-.5-4.22,1.85-4.09,4.85.35,8.12-.08,16.34,4.34,23.72,1.36,2.27-.43,2.58-2,2.62C553.12,377.67,549.63,377.61,546.13,377.61Z" transform="translate(144.55 -320.32)"/><path class="cls-5" d="M622.14,344.78a31.46,31.46,0,0,0,17.75-7.11c1-.84,2.44-1.65,3.66-.86,1.46.93.22,2.43.08,3.64a143.52,143.52,0,0,0-1.27,21.34c.17,4.4.84,8.62,3.35,12.29,1.88,2.75.82,3.47-1.92,3.48-6.14,0-12.28.06-18.42,0-1.82,0-3.64,0-1.71-2.7C629.59,366.64,629.16,354.11,622.14,344.78Z" transform="translate(144.55 -320.32)"/><path class="cls-6" d="M634.44,320.54c3.95.1,6.44,2.73,6.34,6.72-.13,5-5.18,9.66-10.37,9.35-4-.24-6-2.45-6.06-6.43C624.33,325,629.17,320.42,634.44,320.54Z" transform="translate(144.55 -320.32)"/></svg>