<svg id="Layer_1" data-name="Layer 1" xmlns="http://www.w3.org/2000/svg" viewBox="0 0 256.18 59.37"><defs><style>.cls-1{fill:#89896c;}.cls-2{fill:#88896b;}.cls-3{fill:#88896c;}</style></defs><path class="cls-1" d="M244.91,152.09c7.32,0,14.65.14,22-.06,3.92-.11,6.5.61,6.37,5.31-.07,2.82,2.88,6.72.38,8.15s-4.74-2.72-7.08-4.4c-3.11-2.26-6.12-4.6-9.91-5.61-2.31-.61-3.95-.34-3.86,2.67.37,12.79-.77,25.63,1,38.4.56,4,1.32,7.9,3.74,11.23,1.89,2.61.43,3.22-1.86,3.25q-11,.1-22,.07c-2.41,0-3.66-1-1.89-3.36,2.64-3.49,3.43-7.64,3.8-11.73a289.15,289.15,0,0,0,.92-36.41c-.16-4.55-2.19-5-5.76-3.52-4.53,1.9-8.19,5-11.78,8.26-1,.86-2.13,2.07-3.48,1.21-1.09-.69-.43-2.14-.38-3.26a23.09,23.09,0,0,1,.26-2.49c1.27-7.67,1.27-7.69,9-7.71C231.26,152.07,238.08,152.09,244.91,152.09Z" transform="translate(-214.89 -152.02)"/><path class="cls-1" d="M358.27,208.07c-3.69-3.22-4-7.41-4-11.84a72.14,72.14,0,0,0-.23-10c-1-7.51-5-13.17-12-16-7.59-3-15.32-3.19-22.3,2-2.51,1.87-4.77,4.6-2.85,7.65,2.5,4,6.79,2.67,10.47,1.86,3.11-.69,4.37-2.75,3.23-6-.47-1.35-1.08-3.17.89-3.84,1.67-.58,2.79.72,3.63,2,2.76,4.25,3.32,9,2.86,14.6-1.54-1.12-2.54-2-3.65-2.63-9.22-5.49-21.08.6-21.41,10.95a12.85,12.85,0,0,0,7,12.36c5.29,2.94,10.56,2.27,15.57-1.07,1-.7,1.9-3,3.58-1.07,5.11,6,12,3.52,18.27,3.92C360.17,211.2,359.92,209.5,358.27,208.07Zm-26.42-3.22c-4.56-.39-5.52-4-5.56-7.58s1.28-6.7,5.44-7.16c3-.33,6.13,3.55,6.07,7.27C337.74,201.29,334.86,205.11,331.85,204.85Z" transform="translate(-214.89 -152.02)"/><path class="cls-2" d="M286.45,168.24c-12.23-.29-23.15,9.74-23.23,21.34-.08,11.38,10.32,21.31,22.51,21.47,13.09.18,23.46-9.16,23.59-21.26C309.45,178,299.36,168.53,286.45,168.24Zm4,35.81c-.78,1.78-1.82,3.78-4.21,3.68-2.07-.08-3.24-1.86-3.84-3.5-3.49-9.66-4-19.4,0-29.07.7-1.67,1.69-3.32,3.88-3.37,2.48,0,3.41,1.85,4.22,3.64A31.56,31.56,0,0,1,293,189.65,31.55,31.55,0,0,1,290.43,204.05Z" transform="translate(-214.89 -152.02)"/><path class="cls-3" d="M380,211.12c-4.44-.38-9.06-.92-13.11-3.58-2.83-1.86-4.94-4.3-3.87-7.88,1-3.3,4.12-3.62,7-3.62,3.6,0,6.5,1.45,7.51,5.27a24.73,24.73,0,0,1,.36,3.46c.2,1.61.72,3.07,2.71,2.77,1.68-.25,2.5-1.41,2.61-3.15a6.43,6.43,0,0,0-3.12-6.35c-3.94-2.48-7.94-4.86-11.84-7.38s-6.11-6-5.46-10.92,3.7-7.68,7.9-9.47c7.31-3.12,14.63-2.35,21.89.25a6.64,6.64,0,0,1,1.72,1c2.7,2,5.82,4.16,4.43,8s-5.09,3.93-8.49,3.52c-3.73-.46-6.1-2.47-6.16-6.54,0-1.84,0-3.79-2.18-4.55a2.21,2.21,0,0,0-2.67.81,5.55,5.55,0,0,0-.31,5.71,8.71,8.71,0,0,0,3.38,3.56c4,2.66,8.13,5.21,12,8.1,6.63,5,6.47,11.43,0,16.5C390.09,209.94,385.32,210.89,380,211.12Z" transform="translate(-214.89 -152.02)"/><path class="cls-2" d="M452.55,211.12c-5.18-.23-9.92-.93-14-3.86-2.62-1.86-4.52-4.21-3.52-7.58.92-3.09,3.8-3.48,6.5-3.58,3.34-.12,6.37.68,7.64,4.27a21.67,21.67,0,0,1,.68,3.89c.26,1.69.46,3.58,2.83,3.2,2-.31,2.49-1.9,2.57-3.75.12-2.87-1.43-4.67-3.67-6.06-3.81-2.38-7.76-4.56-11.44-7.13-7.85-5.49-7.24-15.56,1.38-19.67,8.14-3.88,16.53-3.48,24.55.57,3,1.53,5.86,4,4.7,7.89-1.08,3.63-4.5,4.11-7.82,3.86-3.94-.31-6.65-2.08-6.83-6.44-.08-1.82.07-3.84-2-4.71a2.31,2.31,0,0,0-3,1.09,5.41,5.41,0,0,0,.23,6.13c2.27,3.22,5.77,4.94,9,7s6.4,3.64,8.61,6.69c3.32,4.57,2.76,9.14-1.47,12.84S457.9,211,452.55,211.12Z" transform="translate(-214.89 -152.02)"/><path class="cls-2" d="M416.57,211.1c-.5,0-1,0-1.49,0-3.48-.12-8,1.08-10.15-.68-2.84-2.36,1.95-5.34,2.29-8.58a90.72,90.72,0,0,0,.33-17.89c-.22-2.33-.26-5.14-3.89-5.34-1.29-.07-1.7-1.43-1.65-2.71a2.22,2.22,0,0,1,2.11-2.38c7.66-.29,11.56-5.77,15.6-11.1a10.72,10.72,0,0,1,2-2.18c1-.78,2.23-1.65,3.64-.86s1.36,2.11,1.11,3.5c-.34,1.79-.49,3.63-.94,5.39-.86,3.38-.42,5.54,3.83,5.15,1.8-.17,2.76,1,2.65,2.8s-1.24,2.84-2.95,2.61c-5-.65-5,2.5-4.71,5.89.73,8,.06,16.34,4.61,23.65,1.31,2.11-.19,2.62-1.93,2.65-3.49,0-7,0-10.47,0Z" transform="translate(-214.89 -152.02)"/></svg>